<?xml version="1.0" encoding="utf-8"?>
<!-- Generator: Adobe Illustrator 16.0.0, SVG Export Plug-In . SVG Version: 6.00 Build 0)  -->
<!DOCTYPE svg PUBLIC "-//W3C//DTD SVG 1.1//EN" "http://www.w3.org/Graphics/SVG/1.1/DTD/svg11.dtd">
<svg version="1.1" id="Layer_1" xmlns="http://www.w3.org/2000/svg" xmlns:xlink="http://www.w3.org/1999/xlink" x="0px" y="0px"
	 width="163px" height="155px" viewBox="0 0 163 155" enable-background="new 0 0 163 155" xml:space="preserve">
<g>
	<path d="M26.9,82.1c0-2.399,0-4.899,0-7.3c0.1-0.3,0.2-0.5,0.2-0.8c0.3-4,1.1-7.9,2.3-11.8C33.1,50.1,40,40.2,50,32.6
		c7.6-5.9,16.2-9.6,25.8-11.1c2-0.3,4-0.5,6-0.8c2.101,0,4.2,0,6.3,0c1.7,0.2,3.5,0.4,5.2,0.6c10,1.5,19.101,5.3,27,11.6
		c13.4,10.7,20.9,24.6,22.4,41.7c0.1,1,0.2,2,0.3,3c0,1.5,0,2.9,0,4.4c-0.2,1.7-0.4,3.4-0.6,5.1c-2.5,16.2-10.5,29.101-23.7,38.7
		c-7.4,5.4-15.7,8.8-24.8,10.101c-1.9,0.3-3.9,0.5-5.801,0.699c-2.199,0-4.3,0-6.5,0c-0.3-0.1-0.5-0.199-0.8-0.199
		c-2-0.2-4.1-0.4-6.1-0.7c-12.2-2.3-22.8-7.8-31.4-16.8c-8.4-8.7-13.6-19-15.5-31C27.3,86.1,27.1,84.1,26.9,82.1z M69.5,104.6
		C69.6,104.6,69.5,104.6,69.5,104.6c-0.3-0.1-0.6-0.199-0.8-0.3c-4.4-1.3-8.5-3.3-12-6.3c-5.7-4.9-8.8-11.2-9.5-18.7
		c-0.6-7.1,1.1-13.7,5.2-19.6c0.3-0.4,0.3-1,0.2-1.6c-0.6-4.2-0.8-8.3,0.7-12.4c1.1-3,3.2-4.3,6.2-4c0.7,0.1,1.4,0.2,2.1,0.4
		c3.6,0.7,6.8,2.5,9.9,4.5c0.9,0.6,1.8,0.7,2.8,0.4c7-1.7,14.101-1.7,21.101-0.1c1.399,0.3,2.399,0.2,3.6-0.6c2.9-1.9,6-3.5,9.4-4.3
		c4.199-1,6.6,0,8.1,3.3c0.3,0.8,0.6,1.6,0.8,2.4c0.7,3.4,0.601,6.8,0.101,10.2c-0.101,0.6-0.101,1.4,0.199,1.8
		c4.301,6.4,6,13.5,4.9,21.1C121,91.5,114.9,98.7,105,102.9c-1.6,0.699-3.2,1.199-4.9,1.8c1.5,2.8,1.9,5.899,1.9,9c0,4,0,8,0,12
		c0,0.399,0,0.7,0,1.1c20.2-6.8,37.1-28.399,33.8-54.1C132.5,46.8,110.4,26.9,83.9,27.5c-26.601,0.6-48.3,21.4-50,48.3
		c-1.6,25.8,15.9,45.101,34.1,51c0-3,0-6,0-9c-0.6,0.101-1.1,0.101-1.6,0.2c-2.7,0.3-5.3-0.1-7.7-1.3c-2.7-1.3-4.7-3.5-6.3-6
		c-1.4-2.3-3.1-4.3-6.1-4.5c-0.2-2.2-0.4-4.4-0.6-6.601c2-0.199,3.8,0.2,5.5,1c3.2,1.5,5.4,4.101,7.2,7c2.2,3.5,5.4,4.5,9.2,3
		c0.2-0.1,0.5-0.399,0.6-0.6C68.6,108.3,69,106.5,69.5,104.6z M88.5,99.9c0.5-0.101,0.9-0.2,1.2-0.2C93.6,99.1,97.6,98.6,101.3,97.2
		c4.101-1.601,7.601-3.9,10.4-7.3c6.2-7.7,5.399-19.8-0.3-26.9c-1.2-1.5-1.601-3.1-1.101-4.9c0.8-2.5,0.7-5.1,0.5-7.7
		c0-0.6-0.2-1.2-0.399-1.9c-0.7,0.2-1.4,0.2-1.9,0.5c-2.6,1.3-5.2,2.6-7.7,4.1c-1.7,1-3.399,1.3-5.3,0.8C88.6,52,81.6,52,74.7,53.8
		c-2.3,0.6-4.3,0.3-6.3-1c-2-1.3-4.1-2.3-6.2-3.4c-0.8-0.4-1.8-0.6-2.9-0.9c-0.6,3.4-0.7,6.6,0.2,9.7c0.5,1.7,0.2,3.1-0.8,4.4
		c-3.5,4.4-5,9.5-4.8,15.1c0.2,6.6,3,12,8.3,16c4.1,3.1,8.9,4.6,14,5.3c1.7,0.2,3.3,0.5,5.2,0.8c-1.5,2.101-2.7,4.2-4.2,6
		c-1.6,2.101-2.5,4.4-2.5,7c0.1,4.601,0,9.101,0,13.7c0,2.3,0,2.3,2.2,2.7c5.8,1,11.6,0.8,17.4-0.2c0.601-0.1,0.9-0.3,0.9-1
		c0-5.2,0-10.5,0-15.7c0-2.399-0.9-4.5-2.4-6.399C91.2,104,89.9,102,88.5,99.9z"/>
</g>
</svg>
