<?xml version="1.0" encoding="utf-8"?>
<!-- Generator: Adobe Illustrator 16.0.0, SVG Export Plug-In . SVG Version: 6.00 Build 0)  -->
<!DOCTYPE svg PUBLIC "-//W3C//DTD SVG 1.1//EN" "http://www.w3.org/Graphics/SVG/1.1/DTD/svg11.dtd">
<svg version="1.1" id="Layer_1" xmlns="http://www.w3.org/2000/svg" xmlns:xlink="http://www.w3.org/1999/xlink" x="0px" y="0px"
	 width="163px" height="155px" viewBox="0 0 163 155" enable-background="new 0 0 163 155" xml:space="preserve">
<g>
	<path d="M76.6,105.8c-1.3-0.5-1.8-1.5-1.8-2.899c0-14.5,0-29.101,0-43.601c0-0.2,0-0.3,0-0.5c0-1.4,0.9-2.4,2.3-2.4c4,0,8,0,12,0
		c1.4,0,2.301,0.9,2.301,2.3c0,0.3,0,0.5,0,0.8c1.199-0.4,2.3-0.8,3.5-1.1c5.3-1.1,10,0.2,14,3.9c4.6,4.3,6.8,9.5,6.8,15.7
		c0,8.4,0,16.7,0,25.1c0,1.2-0.4,2.101-1.5,2.601c-4.2,0-8.5,0-12.7,0c-1.2-0.4-1.6-1.3-1.6-2.601c0-8.5,0-17,0-25.5
		c0-0.4,0-0.9-0.101-1.3c-0.2-2.5-2.899-4.3-5.3-3.5c-1.9,0.6-3.1,2.2-3.1,4.5c0,8.601,0,17.101,0,25.7c0,1.3-0.4,2.2-1.5,2.7
		C85.5,105.8,81,105.8,76.6,105.8z M111.5,101.7c0-0.3,0-0.5,0-0.7c0-7.6,0-15.2,0-22.7c0-4.5-1.4-8.5-4.5-11.8
		c-2.4-2.7-5.3-4.2-9-4.1c-2.6,0-4.9,0.9-7,2.5c-0.4,0.3-0.8,0.6-1.3,0.8c-1.4,0.4-2.5-0.6-2.601-2.2c0-0.9,0-1.8,0-2.7
		c-2.8,0-5.6,0-8.3,0c0,13.7,0,27.4,0,41c2.8,0,5.5,0,8.3,0c0-0.3,0-0.6,0-0.8c0-7.7,0-15.5,0-23.2c0-0.3,0-0.7,0-1
		c0.4-6.1,6.7-9.8,12.101-7c3.1,1.6,4.6,4.3,4.6,7.8c0,7.8,0,15.6,0,23.4c0,0.3,0,0.6,0,0.9C106.5,101.7,109,101.7,111.5,101.7z"/>
	<path d="M55.1,105.8c-1.4-0.6-1.9-1.6-1.9-3.1c0-14.4,0-28.9,0-43.3c0-0.2,0-0.5,0-0.7c0.1-1.4,1-2.3,2.4-2.3c3.9,0,7.9,0,11.8,0
		c1.4,0,2.4,1,2.4,2.4c0,0.2,0,0.4,0,0.5c0,14.5,0,28.9,0,43.4c0,1.5-0.5,2.5-1.9,3C63.7,105.8,59.4,105.8,55.1,105.8z M57.4,60.6
		c0,13.7,0,27.4,0,41.1c2.8,0,5.6,0,8.3,0c0-13.7,0-27.4,0-41.1C62.9,60.6,60.2,60.6,57.4,60.6z"/>
	<path d="M62.6,35.7c1.1,0.4,2.3,0.7,3.3,1.3c3.3,1.9,4.8,6,3.6,9.6c-1.2,3.8-4.8,6.1-8.9,5.8c-3.7-0.3-6.8-3.3-7.3-7.1
		c-0.7-4.6,2.3-8.8,7-9.5c0.1,0,0.2-0.1,0.3-0.1C61.3,35.7,61.9,35.7,62.6,35.7z M65.8,44c0-2.3-1.9-4.3-4.3-4.3
		c-2.3,0-4.2,1.9-4.2,4.2c0,2.3,1.9,4.3,4.3,4.3C63.9,48.3,65.8,46.4,65.8,44z"/>
</g>
</svg>
