<?xml version="1.0" encoding="utf-8"?>
<!-- Generator: Adobe Illustrator 16.0.0, SVG Export Plug-In . SVG Version: 6.00 Build 0)  -->
<!DOCTYPE svg PUBLIC "-//W3C//DTD SVG 1.1//EN" "http://www.w3.org/Graphics/SVG/1.1/DTD/svg11.dtd">
<svg version="1.1" id="Layer_1" xmlns="http://www.w3.org/2000/svg" xmlns:xlink="http://www.w3.org/1999/xlink" x="0px" y="0px"
	 width="126.7px" height="57.1px" viewBox="0 0 126.7 57.1" enable-background="new 0 0 126.7 57.1" xml:space="preserve">
<g>
	<path stroke="#000000" stroke-miterlimit="10" d="M18.241,21.052c0.833-0.139,1.924-0.258,3.313-0.258
		c1.706,0,2.956,0.396,3.748,1.111c0.733,0.635,1.17,1.606,1.17,2.797c0,1.21-0.357,2.162-1.031,2.857
		c-0.912,0.973-2.4,1.469-4.086,1.469c-0.516,0-0.992-0.021-1.389-0.12v5.356h-1.724V21.052z M19.967,27.499
		c0.377,0.1,0.853,0.139,1.428,0.139c2.083,0,3.353-1.012,3.353-2.856c0-1.767-1.25-2.618-3.154-2.618
		c-0.753,0-1.329,0.059-1.626,0.139V27.499z"/>
	<path stroke="#000000" stroke-miterlimit="10" d="M40.22,27.44c0,4.601-2.796,7.041-6.208,7.041c-3.531,0-6.011-2.736-6.011-6.784
		c0-4.245,2.639-7.021,6.209-7.021C37.86,20.677,40.22,23.472,40.22,27.44z M29.846,27.658c0,2.855,1.547,5.415,4.265,5.415
		c2.737,0,4.285-2.519,4.285-5.555c0-2.658-1.388-5.435-4.265-5.435C31.274,22.084,29.846,24.721,29.846,27.658z"/>
	<path stroke="#000000" stroke-miterlimit="10" d="M42.462,21.072c0.873-0.178,2.123-0.278,3.313-0.278
		c1.845,0,3.035,0.337,3.868,1.091c0.675,0.596,1.051,1.507,1.051,2.539c0,1.766-1.111,2.936-2.519,3.412v0.06
		c1.031,0.357,1.646,1.31,1.964,2.698c0.437,1.864,0.754,3.153,1.032,3.67h-1.786c-0.218-0.377-0.516-1.527-0.892-3.195
		c-0.397-1.845-1.111-2.537-2.679-2.598h-1.626v5.793h-1.726V21.072z M44.188,27.162h1.766c1.845,0,3.016-1.013,3.016-2.539
		c0-1.727-1.25-2.48-3.075-2.5c-0.833,0-1.429,0.08-1.706,0.159V27.162z"/>
	<path stroke="#000000" stroke-miterlimit="10" d="M55.673,22.362h-4.066v-1.468h9.899v1.468h-4.087v11.902h-1.746V22.362z"/>
	<path stroke="#000000" stroke-miterlimit="10" d="M62.994,20.895h7.201v1.448h-5.476v4.444h5.059v1.429h-5.059v6.051h-1.726V20.895
		z"/>
	<path stroke="#000000" stroke-miterlimit="10" d="M84.08,27.44c0,4.601-2.795,7.041-6.207,7.041c-3.531,0-6.011-2.736-6.011-6.784
		c0-4.245,2.638-7.021,6.207-7.021C81.721,20.677,84.08,23.472,84.08,27.44z M73.705,27.658c0,2.855,1.548,5.415,4.267,5.415
		c2.736,0,4.283-2.519,4.283-5.555c0-2.658-1.388-5.435-4.266-5.435C75.132,22.084,73.705,24.721,73.705,27.658z"/>
	<path stroke="#000000" stroke-miterlimit="10" d="M86.322,20.895h1.727v11.92h5.712v1.451h-7.438V20.895z"/>
	<path stroke="#000000" stroke-miterlimit="10" d="M97.412,20.895v13.371h-1.727V20.895H97.412z"/>
	<path stroke="#000000" stroke-miterlimit="10" d="M111.852,27.44c0,4.601-2.795,7.041-6.207,7.041
		c-3.531,0-6.011-2.736-6.011-6.784c0-4.245,2.637-7.021,6.207-7.021C109.494,20.677,111.852,23.472,111.852,27.44z M101.477,27.658
		c0,2.855,1.547,5.415,4.266,5.415c2.737,0,4.284-2.519,4.284-5.555c0-2.658-1.389-5.435-4.266-5.435
		C102.904,22.084,101.477,24.721,101.477,27.658z"/>
	<path fill="#39FF14" stroke="#39FF14" stroke-miterlimit="10" d="M113.619,33.233c0-0.735,0.496-1.251,1.188-1.251
		c0.695,0,1.172,0.517,1.172,1.251c0,0.714-0.456,1.248-1.189,1.248C114.093,34.483,113.619,33.947,113.619,33.233z"/>
</g>
</svg>
